<mxfile host="app.diagrams.net" modified="2024-06-11T08:55:13.372Z" agent="Mozilla/5.0 (Macintosh; Intel Mac OS X 10.15; rv:126.0) Gecko/20100101 Firefox/126.0" version="24.5.2" etag="8FWL9zBXnsvjTAFp54yK" type="github">
  <diagram name="Page-1" id="fdu1PH_4OV5Pdf10EV2S">
    <mxGraphModel>
      <root>
        <mxCell id="0" />
        <mxCell id="1" parent="0" />
      </root>
    </mxGraphModel>
  </diagram>
</mxfile>
